<?xml version="1.0" encoding="UTF-8"?>
<svg width="86px" height="24px" viewBox="0 0 86 24" version="1.1" xmlns="http://www.w3.org/2000/svg" xmlns:xlink="http://www.w3.org/1999/xlink">
    <title>68149C55-1D0E-41B2-A50C-5480532E204E</title>
    <g id="[GE]-Footer" stroke="none" stroke-width="1" fill="none" fill-rule="evenodd">
        <g id="desktop---fullscreen-1.0" transform="translate(-717.000000, -964.000000)">
            <g id="Footer" transform="translate(80.000000, 964.000000)">
                <g id="Toggle" transform="translate(637.000000, 0.000000)">
                    <g id="Background" transform="translate(43.000000, 12.000000) rotate(-90.000000) translate(-43.000000, -12.000000) translate(31.000000, -31.000000)">
                        <path d="M0,86 L0,0 L11.5,0 L11.5,5.85926497 C11.5,7.19667772 12.1684045,8.44560303 13.2811992,9.18746614 L21.7188008,14.8125339 C22.8315955,15.554397 23.5,16.8033223 23.5,18.140735 L23.5,67.859265 C23.5,69.1966777 22.8315955,70.445603 21.7188008,71.1874661 L13.2811992,76.8125339 C12.1684045,77.554397 11.5,78.8033223 11.5,80.140735 L11.5,86 L11.5,86 L0,86 Z" id="Button-Background" fill="#FFFFFF"></path>
                        <path d="M12,0 L12,5.85926497 C12,6.95636136 12.5140318,7.98540712 13.380586,8.64461913 L13.5585493,8.771441 L21.9961509,14.3965087 C23.1821557,15.1871786 23.919462,16.4898268 23.9937878,17.9040642 L24,18.140735 L24,67.859265 C24,69.2846654 23.3251151,70.6207205 22.189627,71.4670411 L21.9961509,71.6034913 L13.5585493,77.228559 C12.6457099,77.8371186 12.0746257,78.8356308 12.0068059,79.9223125 L12,80.140735 L12,86 L11,86 L11,80.140735 C11,78.7153346 11.6748849,77.3792795 12.810373,76.5329589 L13.0038491,76.3965087 L21.4414507,70.771441 C22.3542901,70.1628814 22.9253743,69.1643692 22.9931941,68.0776875 L23,67.859265 L23,18.140735 C23,17.0436386 22.4859682,16.0145929 21.619414,15.3553809 L21.4414507,15.228559 L13.0038491,9.60349129 C11.8178443,8.81282139 11.080538,7.51017318 11.0062122,6.09593578 L11,5.85926497 L11,0 L12,0 Z" id="Button-Border" fill="#E4E9F2" fill-rule="nonzero"></path>
                    </g>
                    <g id="1)-Icon/1)-24/1)-Outline/chevron-up-F0143" transform="translate(35.000000, -0.000000)" fill="#222B45">
                        <polygon id="󰅃" points="11.0625 10.2666667 12 9.32995781 8 5.33333333 4 9.32995781 4.9375 10.2666667 8 7.20675105"></polygon>
                    </g>
                </g>
            </g>
        </g>
    </g>
</svg>