<?xml version="1.0" encoding="utf-8"?>
<!-- Generator: Adobe Illustrator 16.0.0, SVG Export Plug-In . SVG Version: 6.00 Build 0)  -->
<!DOCTYPE svg PUBLIC "-//W3C//DTD SVG 1.1//EN" "http://www.w3.org/Graphics/SVG/1.1/DTD/svg11.dtd">
<svg version="1.1" id="Layer_1" xmlns="http://www.w3.org/2000/svg" xmlns:xlink="http://www.w3.org/1999/xlink" x="0px" y="0px"
	 width="170px" height="23.191px" viewBox="0 0 170 23.191" enable-background="new 0 0 170 23.191" xml:space="preserve">
<linearGradient id="SVGID_1_" gradientUnits="userSpaceOnUse" x1="-1157.1489" y1="4.1711" x2="-1157.0309" y2="4.1711" gradientTransform="matrix(163.3574 -163.3574 -163.3574 -163.3574 189712.2188 -188326.125)">
	<stop  offset="0" style="stop-color:#1A7DF1"/>
	<stop  offset="1" style="stop-color:#23C9FA"/>
</linearGradient>
<path fill="url(#SVGID_1_)" d="M23.192,16.768V6.427C23.192,2.878,20.315,0,16.766,0H6.425C2.876,0,0,2.876,0,6.427v10.337
	c0,3.553,2.877,6.428,6.426,6.428h10.339C20.314,23.192,23.192,20.317,23.192,16.768z"/>
<polygon fill="#FFFFFF" points="9.688,8.854 5.765,8.854 5.765,5.719 17.427,5.719 17.427,8.854 13.48,8.854 13.48,19.19 
	9.688,19.19 "/>
<polygon fill="#FFFFFF" points="36.595,7.633 36.595,18.346 33.334,18.346 33.334,7.633 29.522,7.633 29.522,4.848 40.405,4.848 
	40.405,7.633 "/>
<polygon fill="#FFFFFF" points="41.894,18.346 41.894,4.848 50.968,4.848 50.968,7.594 45.04,7.594 45.04,10.147 50.643,10.147 
	50.643,12.758 45.04,12.758 45.04,15.561 51.311,15.561 51.311,18.346 "/>
<polygon fill="#FFFFFF" points="65.704,18.346 65.78,8.795 65.722,8.795 62.215,18.346 59.93,18.346 56.514,8.795 56.458,8.795 
	56.536,18.346 53.463,18.346 53.463,4.848 58.103,4.848 61.178,13.504 61.252,13.504 64.19,4.848 68.909,4.848 68.909,18.346 "/>
<path fill="#FFFFFF" d="M81.909,9.005c0,0.787-0.147,1.451-0.441,1.991c-0.292,0.542-0.687,0.977-1.181,1.307
	c-0.497,0.33-1.067,0.572-1.715,0.725c-0.649,0.154-1.323,0.232-2.022,0.232h-1.619v5.086h-3.26V4.848h4.955
	c0.737,0,1.426,0.073,2.067,0.22c0.643,0.147,1.201,0.381,1.678,0.704s0.852,0.752,1.125,1.278
	C81.771,7.577,81.909,8.229,81.909,9.005 M78.648,9.022c0-0.318-0.063-0.579-0.19-0.782c-0.128-0.203-0.298-0.361-0.515-0.476
	c-0.215-0.113-0.461-0.188-0.732-0.228c-0.273-0.038-0.555-0.057-0.85-0.057h-1.428v3.183h1.371c0.308,0,0.597-0.023,0.876-0.073
	c0.279-0.054,0.531-0.142,0.754-0.27c0.221-0.127,0.396-0.295,0.523-0.504C78.584,9.605,78.648,9.343,78.648,9.022"/>
<path fill="#FFFFFF" d="M103.699,18.346l-1.051-2.652h-5.225l-0.988,2.652h-3.547l5.664-13.499h3.166l5.602,13.499H103.699z
	 M100.076,8.45l-1.715,4.632h3.395L100.076,8.45z"/>
<polygon fill="#FFFFFF" points="113.078,7.633 113.078,18.346 109.814,18.346 109.814,7.633 106.004,7.633 106.004,4.848 
	116.891,4.848 116.891,7.633 "/>
<polygon fill="#FFFFFF" points="118.377,18.346 118.377,4.848 127.451,4.848 127.451,7.594 121.523,7.594 121.523,10.147 
	127.127,10.147 127.127,12.758 121.523,12.758 121.523,15.561 127.795,15.561 127.795,18.346 "/>
<path fill="#FFFFFF" d="M132.064,17.43c0,0.268-0.096,0.502-0.283,0.713c-0.191,0.213-0.441,0.314-0.746,0.314
	s-0.555-0.1-0.744-0.314c-0.193-0.209-0.285-0.445-0.285-0.713s0.092-0.506,0.285-0.715c0.189-0.215,0.439-0.316,0.744-0.316
	s0.553,0.107,0.746,0.316C131.973,16.926,132.064,17.162,132.064,17.43"/>
<polygon fill="#FFFFFF" points="144.873,16.342 144.914,16.342 144.914,4.848 146.285,4.848 146.285,18.346 144.57,18.346 
	136.715,6.735 136.676,6.735 136.676,18.346 135.305,18.346 135.305,4.848 137.023,4.848 "/>
<polygon fill="#FFFFFF" points="151.238,17.123 158.463,17.123 158.463,18.346 149.869,18.346 149.869,4.848 158.238,4.848 
	158.238,6.066 151.238,6.066 151.238,10.701 157.781,10.701 157.781,11.918 151.238,11.918 "/>
<polygon fill="#FFFFFF" points="165.482,18.346 164.111,18.346 164.111,6.066 159.592,6.066 159.592,4.848 170,4.848 170,6.066 
	165.482,6.066 "/>
<polygon fill="#FFFFFF" points="87.148,15.504 87.148,4.848 83.872,4.848 83.872,18.346 90.857,18.346 92.047,15.504 "/>
</svg>
